<?xml version="1.0" encoding="utf-8"?>
<!-- Generator: Adobe Illustrator 24.2.3, SVG Export Plug-In . SVG Version: 6.00 Build 0)  -->
<svg version="1.1" id="Layer_1" xmlns="http://www.w3.org/2000/svg" xmlns:xlink="http://www.w3.org/1999/xlink" x="0px" y="0px"
	 viewBox="0 0 647 149" style="enable-background:new 0 0 647 149;" xml:space="preserve">
<style type="text/css">
	.st0{fill:#40114A;}
	.st1{opacity:0.53;}
	.st2{fill:#FFFFFF;}
	.st3{opacity:0.5;}
	.st4{fill:none;stroke:#000000;stroke-miterlimit:10;}
	.st5{opacity:0.2;}
	.st6{opacity:0.3;}
	.st7{opacity:0.9;fill:url(#SVGID_1_);}
	.st8{display:none;}
	.st9{display:inline;fill:#FFFFFF;}
	.st10{opacity:0.7;}
	.st11{fill:none;stroke:#000000;stroke-width:0.5;stroke-miterlimit:10;}
	.st12{fill:url(#SVGID_2_);}
	.st13{fill:url(#SVGID_3_);}
	.st14{fill:#CEA33A;}
	.st15{fill:#BC803E;}
	.st16{fill:url(#SVGID_4_);}
	.st17{fill:url(#SVGID_5_);}
	.st18{fill:url(#SVGID_6_);}
	.st19{fill:url(#SVGID_7_);}
	.st20{fill:url(#SVGID_8_);}
	.st21{fill:url(#SVGID_9_);}
	.st22{fill:url(#SVGID_10_);}
	.st23{fill:url(#SVGID_11_);}
	.st24{fill:url(#SVGID_12_);}
	.st25{fill:url(#SVGID_13_);}
	.st26{fill:url(#SVGID_14_);}
	.st27{fill:url(#SVGID_15_);}
	.st28{fill:url(#SVGID_16_);}
	.st29{fill:url(#SVGID_17_);}
	.st30{fill:url(#SVGID_18_);}
	.st31{fill:url(#SVGID_19_);}
	.st32{fill:url(#SVGID_20_);}
	.st33{fill:url(#SVGID_21_);}
	.st34{fill:url(#SVGID_22_);}
	.st35{fill:#EAAE06;}
	.st36{opacity:0.9;fill:url(#SVGID_23_);}
	.st37{opacity:0.9;fill:url(#SVGID_24_);}
	.st38{opacity:0.48;}
	.st39{opacity:0.9;fill:url(#SVGID_25_);}
	.st40{clip-path:url(#SVGID_27_);}
	.st41{clip-path:url(#SVGID_29_);}
	.st42{clip-path:url(#SVGID_31_);}
	.st43{opacity:0.48;clip-path:url(#SVGID_35_);}
	.st44{clip-path:url(#SVGID_37_);}
	.st45{clip-path:url(#SVGID_35_);fill:#3F1449;}
	.st46{opacity:0.2;clip-path:url(#SVGID_35_);}
	.st47{clip-path:url(#SVGID_39_);}
	.st48{clip-path:url(#SVGID_35_);fill:#FFFFFF;}
	.st49{clip-path:url(#SVGID_43_);fill:#FFFFFF;}
	.st50{opacity:0.2;clip-path:url(#SVGID_43_);}
	.st51{clip-path:url(#SVGID_45_);}
	.st52{clip-path:url(#SVGID_49_);}
	.st53{clip-path:url(#SVGID_53_);fill:#FFFFFF;}
</style>
<g>
	<g>
		<path class="st2" d="M13.59,78.48l124.33-0.7c20.72-0.04,41.44,0.07,62.17-0.2c10.36-0.09,20.72-0.99,31.08-1.1
			s20.72,0.21,31.08,2v0.2c-10.36,1.79-20.72,2.11-31.08,2s-20.72-1.01-31.08-1.1c-20.72-0.27-41.44-0.16-62.17-0.2l-124.33-0.7
			V78.48z"/>
	</g>
	<g>
		<path class="st2" d="M614,78.68l-124.33,0.7c-20.72,0.04-41.44-0.07-62.16,0.2c-10.36,0.09-20.72,0.99-31.08,1.1
			s-20.72-0.21-31.08-2v-0.2c10.36-1.79,20.72-2.11,31.08-2s20.72,1.01,31.08,1.1c20.72,0.27,41.44,0.16,62.16,0.2L614,78.48V78.68z
			"/>
	</g>
	<path class="st2" d="M309.89,90.35l-8.6-8.09c-2.16-2.03-2.16-5.32,0-7.35l8.6-8.09c2.16-2.03,5.65-2.03,7.81,0l8.6,8.09
		c2.16,2.03,2.16,5.32,0,7.35l-8.6,8.09C315.54,92.38,312.05,92.38,309.89,90.35z"/>
	<path class="st2" d="M274.49,83.12L274.49,83.12c-2.66-2.51-2.66-6.57,0-9.08v0c2.66-2.51,6.98-2.51,9.64,0v0
		c2.66,2.51,2.66,6.57,0,9.08v0C281.47,85.63,277.15,85.63,274.49,83.12z"/>
	<path class="st2" d="M343.46,83.12L343.46,83.12c-2.66-2.51-2.66-6.57,0-9.08l0,0c2.66-2.51,6.98-2.51,9.64,0v0
		c2.66,2.51,2.66,6.57,0,9.08v0C350.44,85.63,346.12,85.63,343.46,83.12z"/>
</g>
</svg>
